<?xml version="1.0" standalone="no"?>
<svg viewBox="0 0 200 200" xmlns="http://www.w3.org/2000/svg">
  <path fill="#F2F4F8" d="M50.2,-62.2C64.8,-58.4,76.3,-43.5,75.8,-28.5C75.3,-13.6,62.7,1.4,55.3,16C47.9,30.7,45.5,45.1,37.2,56.9C28.8,68.6,14.4,77.8,-0.7,78.8C-15.8,79.7,-31.6,72.5,-45.8,62.6C-60.1,52.7,-72.9,40.3,-77.4,25.4C-81.8,10.5,-78,-6.8,-70.6,-20.9C-63.1,-34.9,-52.1,-45.8,-39.8,-50.2C-27.4,-54.7,-13.7,-52.7,2,-55.5C17.8,-58.3,35.5,-65.9,50.2,-62.2Z" transform="translate(100 100)" />
</svg>
